<svg xmlns="http://www.w3.org/2000/svg" width="1200" height="675" viewBox="0 0 1200 675">
  <defs>
    <linearGradient id="bg" x1="0" y1="0" x2="1" y2="1">
      <stop offset="0%" stop-color="#0a0a0f"/>
      <stop offset="100%" stop-color="#111118"/>
    </linearGradient>
    <linearGradient id="glow" x1="0" y1="0" x2="1" y2="1">
      <stop offset="0%" stop-color="#00ff9d" stop-opacity="0.15"/>
      <stop offset="100%" stop-color="#00ff9d" stop-opacity="0"/>
    </linearGradient>
  </defs>
  <rect width="1200" height="675" fill="url(#bg)"/>
  <rect width="1200" height="675" fill="url(#glow)"/>
  <line x1="0" y1="0" x2="0" y2="675" stroke="#1e1e2a" stroke-width="1"/>
  <line x1="200" y1="0" x2="200" y2="675" stroke="#1e1e2a" stroke-width="0.5" opacity="0.5"/>
  <line x1="400" y1="0" x2="400" y2="675" stroke="#1e1e2a" stroke-width="0.5" opacity="0.5"/>
  <line x1="600" y1="0" x2="600" y2="675" stroke="#1e1e2a" stroke-width="0.5" opacity="0.5"/>
  <line x1="800" y1="0" x2="800" y2="675" stroke="#1e1e2a" stroke-width="0.5" opacity="0.5"/>
  <line x1="1000" y1="0" x2="1000" y2="675" stroke="#1e1e2a" stroke-width="0.5" opacity="0.5"/>
  <line x1="1200" y1="0" x2="1200" y2="675" stroke="#1e1e2a" stroke-width="1"/>
  <line x1="0" y1="0" x2="1200" y2="0" stroke="#1e1e2a" stroke-width="1"/>
  <line x1="0" y1="135" x2="1200" y2="135" stroke="#1e1e2a" stroke-width="0.5" opacity="0.5"/>
  <line x1="0" y1="270" x2="1200" y2="270" stroke="#1e1e2a" stroke-width="0.5" opacity="0.5"/>
  <line x1="0" y1="405" x2="1200" y2="405" stroke="#1e1e2a" stroke-width="0.5" opacity="0.5"/>
  <line x1="0" y1="540" x2="1200" y2="540" stroke="#1e1e2a" stroke-width="0.5" opacity="0.5"/>
  <line x1="0" y1="675" x2="1200" y2="675" stroke="#1e1e2a" stroke-width="1"/>
  <circle cx="600" cy="337" r="180" fill="none" stroke="#00ff9d" stroke-width="1" opacity="0.08"/>
  <circle cx="600" cy="337" r="130" fill="none" stroke="#00ff9d" stroke-width="1" opacity="0.12"/>
  <circle cx="600" cy="337" r="80" fill="none" stroke="#00ff9d" stroke-width="1" opacity="0.2"/>
  <circle cx="600" cy="337" r="30" fill="#00ff9d" opacity="0.3"/>
  <text x="80" y="100" font-family="'SF Mono', 'Fira Code', monospace" font-size="14" fill="#5a6478">// cover-image</text>
  <text x="80" y="140" font-family="'SF Mono', 'Fira Code', monospace" font-size="12" fill="#5a6478">Record_ID: RPT_20260630</text>
  <text x="600" y="520" text-anchor="middle" font-family="-apple-system, BlinkMacSystemFont, 'Segoe UI', sans-serif" font-size="42" font-weight="700" fill="#e2e8f0" letter-spacing="-1">Sample Blog Title</text>
  <text x="600" y="565" text-anchor="middle" font-family="'SF Mono', 'Fira Code', monospace" font-size="16" fill="#00ff9d" opacity="0.8">_ 记录技术，分享生活 _</text>
  <rect x="0" y="620" width="1200" height="55" fill="#00ff9d" opacity="0.04"/>
  <text x="600" y="653" text-anchor="middle" font-family="'SF Mono', 'Fira Code', monospace" font-size="11" fill="#5a6478">Category · MMDD, YYYY  ·  5 min read</text>
</svg>